<?xml version="1.0" encoding="utf-8"?>
<svg version="1.0" width="24px" height="24px" viewBox="0 0 24 24" preserveAspectRatio="xMidYMid meet" xmlns="http://www.w3.org/2000/svg">
  <g transform="matrix(0.013039, 0, 0, -0.013039, -4.037342, 24.695187)" fill="#757575" stroke="none" style="">
    <path d="M 811.526 1424 C 641.526 1378 506.526 1239 471.526 1072 C 420.526 827 569.526 589 815.526 525 C 847.526 517 875.526 512 877.526 513 C 879.526 515 860.526 531 836.526 548 C 784.526 585 706.526 686 678.526 750 C 576.526 987 651.526 1270 855.526 1418 C 890.526 1443 884.526 1444 811.526 1424 Z"/>
    <path d="M 1138.203 1429 C 978.203 1391 840.203 1252 796.203 1085 C 730.203 829 908.203 558 1171.203 515 L 1216.203 508 L 1186.203 531 C 1087.203 606 1023.203 693 986.203 805 C 965.203 865 960.203 901 960.203 975 C 960.203 1155 1037.203 1307 1185.203 1418 C 1217.203 1443 1206.203 1445 1138.203 1429 Z"/>
    <path d="M 1477.795 1426 C 1399.795 1405 1334.795 1367 1271.795 1305 C 1084.795 1120 1084.795 831 1271.795 645 C 1366.795 551 1466.795 511 1604.795 510 C 1895.795 509 2116.795 784 2056.795 1072 C 2022.795 1232 1895.795 1372 1736.795 1421 C 1666.795 1443 1546.795 1445 1477.795 1426 Z"/>
  </g>
</svg>