<?xml version="1.0" encoding="utf-8"?>
<svg viewBox="0 0 297.949 80.177" xmlns="http://www.w3.org/2000/svg">
  <g id="svgGroup" stroke-linecap="round" fill-rule="evenodd" font-size="9pt" stroke="currentColor" stroke-width="0.1mm" fill="currentColor" transform="matrix(0.97954, 0, 0, 0.97954, 3.047874, 0.820251)">
    <path d="M 133.691 32.618 L 133.691 62.989 C 133.689 63.634 133.718 64.279 133.777 64.922 C 133.903 66.234 134.167 67.315 134.57 68.165 C 134.878 68.829 135.29 69.44 135.791 69.974 C 136.167 70.37 136.594 70.714 137.061 70.997 C 138.055 71.594 139.156 71.992 140.302 72.166 C 140.426 72.186 140.55 72.203 140.674 72.218 C 141.626 72.332 142.583 72.406 143.542 72.438 C 144.002 72.454 144.462 72.462 144.922 72.462 L 144.922 79.689 C 144.075 79.819 143.229 79.917 142.383 79.982 C 142.094 80.008 141.805 80.03 141.515 80.048 C 141.257 80.065 140.985 80.08 140.698 80.093 C 140.397 80.107 140.096 80.118 139.795 80.128 C 138.802 80.16 137.809 80.177 136.816 80.177 C 135.823 80.176 134.829 80.144 133.838 80.079 C 133.48 80.056 133.121 80.027 132.764 79.992 C 132.413 79.957 132.085 79.917 131.778 79.872 C 131.602 79.846 131.425 79.818 131.25 79.786 C 130.37 79.639 129.515 79.37 128.709 78.988 C 127.686 78.499 126.786 77.787 126.074 76.905 C 124.848 75.394 123.905 73.674 123.291 71.827 C 122.878 70.601 122.559 69.345 122.338 68.07 C 122.244 67.519 122.171 66.964 122.119 66.407 C 122.08 65.992 122.045 65.577 122.012 65.162 C 121.942 64.265 121.899 63.496 121.883 62.857 C 121.878 62.673 121.875 62.49 121.875 62.306 L 121.875 32.618 L 114.648 32.618 L 128.637 6.622 L 142.48 32.618 L 133.691 32.618 Z M 242.285 62.599 L 242.285 63.38 C 242.285 63.525 242.287 63.671 242.291 63.816 C 242.3 64.148 242.317 64.545 242.342 65.006 C 242.355 65.229 242.368 65.452 242.383 65.675 C 242.448 66.684 242.578 67.71 242.773 68.751 C 242.891 69.392 243.064 70.022 243.289 70.633 C 243.409 70.957 243.547 71.274 243.701 71.583 C 243.841 71.868 244.013 72.136 244.214 72.382 C 244.528 72.771 244.941 73.069 245.41 73.243 L 242.285 79.786 C 241.773 79.783 241.264 79.717 240.768 79.59 C 240.37 79.489 239.979 79.358 239.6 79.2 C 238.87 78.895 238.177 78.509 237.533 78.049 C 237.305 77.887 237.082 77.717 236.865 77.54 C 235.986 76.824 235.238 76.027 234.619 75.148 C 234 74.269 233.528 73.308 233.203 72.267 C 232.844 73.143 232.332 73.947 231.69 74.642 C 231.196 75.188 230.611 75.708 229.935 76.203 C 229.742 76.344 229.546 76.48 229.346 76.612 C 227.388 77.898 225.225 78.84 222.949 79.396 L 222.949 71.974 C 224.488 71.659 225.938 71.008 227.197 70.069 C 228.467 69.125 229.558 68.002 230.469 66.7 L 230.469 46.095 C 230.47 45.161 230.454 44.228 230.421 43.295 C 230.351 41.382 230.204 39.776 229.98 38.478 C 229.892 37.956 229.775 37.439 229.63 36.93 C 229.317 35.851 228.899 35.005 228.376 34.392 C 228.358 34.37 228.339 34.348 228.32 34.327 C 227.572 33.467 226.558 32.883 225.439 32.667 C 224.472 32.474 223.353 32.362 222.082 32.333 C 221.85 32.328 221.619 32.325 221.387 32.325 C 219.954 32.325 218.603 32.504 217.334 32.862 C 216.503 33.095 215.685 33.369 214.881 33.683 C 214.523 33.823 214.168 33.973 213.818 34.132 C 213.248 34.39 212.692 34.676 212.151 34.99 C 211.751 35.222 211.362 35.474 210.986 35.743 C 210.795 35.88 210.605 36.019 210.416 36.158 C 210.051 36.427 209.742 36.661 209.489 36.86 C 209.385 36.942 209.282 37.025 209.18 37.11 L 204.785 30.372 C 205.24 29.871 205.855 29.362 206.63 28.845 C 206.984 28.61 207.346 28.386 207.715 28.175 C 208.485 27.735 209.28 27.339 210.095 26.99 C 210.789 26.692 211.493 26.419 212.207 26.173 C 213.391 25.766 214.596 25.423 215.817 25.146 C 216.45 25.001 217.086 24.872 217.725 24.757 C 219.607 24.422 221.513 24.243 223.424 24.223 C 223.591 24.221 223.759 24.22 223.926 24.22 C 225.846 24.217 227.76 24.413 229.639 24.806 C 231.494 25.197 233.187 25.848 234.717 26.759 C 236.129 27.607 237.375 28.705 238.395 29.999 C 238.506 30.138 238.615 30.278 238.721 30.421 C 239.384 31.323 239.922 32.311 240.319 33.358 C 240.663 34.259 240.928 35.188 241.113 36.134 C 241.569 38.413 241.878 40.708 242.041 43.019 C 242.204 45.33 242.285 47.624 242.285 49.903 L 242.285 62.599 Z M 72.754 42.189 L 72.754 79.689 L 61.035 79.689 L 61.035 49.708 C 61.035 48.63 61.031 47.551 61.023 46.473 C 61.015 45.452 61.003 44.43 60.986 43.409 C 60.954 41.424 60.743 39.65 60.352 38.087 C 59.961 36.524 59.326 35.304 58.447 34.425 C 57.75 33.728 56.757 33.308 55.468 33.163 C 55.112 33.124 54.753 33.106 54.395 33.107 C 53.939 33.107 52.962 33.205 51.465 33.4 C 49.968 33.595 48.242 34.149 46.289 35.06 L 46.289 27.345 C 47.776 26.457 49.347 25.717 50.978 25.134 C 51.204 25.054 51.432 24.977 51.66 24.903 C 52.471 24.64 53.299 24.429 54.138 24.273 C 54.995 24.112 55.866 24.029 56.738 24.025 C 58.952 24.025 61.035 24.464 62.988 25.343 C 64.942 26.223 66.689 27.504 68.115 29.103 C 69.353 30.49 70.357 32.071 71.085 33.782 C 71.246 34.154 71.395 34.532 71.533 34.913 C 72.347 37.159 72.754 39.584 72.754 42.189 Z M 42.285 48.732 L 42.285 79.689 L 30.469 79.689 L 30.469 49.708 L 30.469 43.409 C 30.469 41.424 30.274 39.65 29.883 38.087 C 29.743 37.512 29.55 36.951 29.306 36.412 C 29.006 35.759 28.64 35.192 28.208 34.712 C 28.119 34.613 28.026 34.517 27.93 34.425 C 27.157 33.68 26.081 33.251 24.701 33.137 C 24.443 33.116 24.185 33.106 23.926 33.107 C 23.676 33.108 23.427 33.119 23.178 33.141 C 22.632 33.186 21.973 33.276 21.2 33.41 C 20.953 33.453 20.706 33.499 20.459 33.546 C 19.014 33.827 17.607 34.281 16.269 34.896 C 16.151 34.95 16.034 35.004 15.918 35.06 L 15.918 27.345 C 17.481 26.434 19.157 25.685 20.947 25.099 C 22.349 24.633 23.805 24.348 25.279 24.251 C 25.609 24.23 25.939 24.22 26.27 24.22 C 29.098 24.22 31.505 24.771 33.491 25.874 C 33.608 25.939 33.724 26.006 33.838 26.075 C 34.852 26.694 35.807 27.406 36.69 28.201 C 37.755 29.15 38.806 30.265 39.844 31.544 C 40.625 32.716 41.195 33.969 41.553 35.304 C 41.911 36.639 42.139 38.022 42.236 39.454 C 42.31 40.554 42.347 41.656 42.346 42.759 C 42.346 43.139 42.342 43.518 42.334 43.898 C 42.317 44.683 42.305 45.469 42.297 46.254 C 42.289 47.08 42.285 47.906 42.285 48.732 Z M 101.367 24.61 L 101.367 79.689 L 89.453 79.689 L 89.453 24.61 L 101.367 24.61 Z M 0 24.61 L 10.645 24.61 L 11.914 30.275 L 11.914 79.689 L 0 79.689 L 0 24.61 Z M 158.789 24.61 L 169.336 24.61 L 170.605 30.275 L 170.605 60.157 L 170.605 60.353 L 170.605 79.689 L 158.789 79.689 L 158.789 24.61 Z M 218.945 72.169 L 218.945 80.079 C 218.746 80.129 218.452 80.16 218.062 80.171 C 217.933 80.175 217.805 80.177 217.676 80.177 C 215.462 80.177 213.33 79.884 211.279 79.298 C 209.293 78.746 207.446 77.781 205.859 76.466 C 204.709 75.497 203.748 74.325 203.023 73.008 C 202.713 72.453 202.437 71.879 202.197 71.29 C 201.318 69.142 200.879 66.505 200.879 63.38 C 200.871 62.096 201.003 60.816 201.27 59.56 C 201.565 58.174 202.075 56.843 202.783 55.616 C 204.053 53.435 205.681 51.645 207.666 50.245 C 209.388 49.041 211.281 48.105 213.283 47.467 C 213.67 47.341 214.06 47.226 214.453 47.12 C 216.992 46.437 219.564 46.095 222.168 46.095 L 226.465 46.095 L 226.465 53.028 L 224.316 53.028 C 223.014 53.028 221.647 53.158 220.215 53.419 C 218.782 53.68 217.448 54.168 216.211 54.884 C 215.149 55.505 214.235 56.348 213.532 57.357 C 213.393 57.553 213.26 57.754 213.135 57.96 C 212.718 58.656 212.413 59.413 212.229 60.203 C 212.019 61.068 211.914 62.029 211.914 63.087 C 211.91 63.854 211.958 64.62 212.057 65.381 C 212.3 67.184 212.855 68.601 213.721 69.63 C 214.925 71.062 216.666 71.908 218.945 72.169 Z M 280.762 58.107 L 280.762 47.755 C 282.764 48.424 284.751 49.14 286.719 49.903 C 288.432 50.56 290.07 51.398 291.605 52.403 C 291.818 52.543 292.028 52.686 292.236 52.833 C 293.897 54.005 295.264 55.454 296.338 57.179 C 297.412 58.904 297.949 61.069 297.949 63.673 C 297.955 64.781 297.858 65.887 297.659 66.977 C 297.449 68.132 297.087 69.254 296.582 70.314 C 295.696 72.167 294.451 73.827 292.92 75.196 C 291.593 76.373 290.086 77.33 288.456 78.031 C 288.141 78.169 287.822 78.298 287.5 78.419 C 285.753 79.068 283.943 79.533 282.1 79.808 C 281.655 79.876 281.209 79.934 280.762 79.982 L 280.762 70.704 C 281.474 70.582 282.177 70.411 282.866 70.192 C 284.091 69.796 285.098 69.267 285.889 68.605 C 286.967 67.717 287.617 66.414 287.679 65.019 C 287.69 64.864 287.695 64.708 287.695 64.552 C 287.703 63.923 287.595 63.297 287.377 62.707 C 287.068 61.894 286.531 61.209 285.768 60.65 C 285.743 60.632 285.718 60.614 285.693 60.597 C 285.006 60.115 284.285 59.683 283.536 59.305 C 282.693 58.875 281.769 58.476 280.762 58.107 Z M 276.758 23.732 L 276.758 33.497 C 276.136 33.613 275.528 33.796 274.946 34.043 C 274.132 34.384 273.4 34.898 272.803 35.548 C 272.287 36.128 271.909 36.818 271.698 37.566 C 271.543 38.091 271.445 38.667 271.406 39.296 C 271.393 39.511 271.387 39.727 271.387 39.943 C 271.382 40.514 271.459 41.083 271.618 41.632 C 271.851 42.425 272.294 43.14 272.9 43.702 C 273.451 44.212 274.047 44.671 274.682 45.072 C 275.27 45.447 275.915 45.799 276.617 46.127 C 276.664 46.149 276.711 46.171 276.758 46.193 L 276.758 56.642 C 275.622 56.307 274.499 55.932 273.389 55.519 C 272.247 55.095 271.123 54.622 270.02 54.103 C 268.905 53.518 267.819 52.879 266.767 52.188 C 264.892 50.948 263.388 49.666 262.256 48.341 C 261.182 47.066 260.43 45.552 260.063 43.926 C 259.816 42.897 259.685 41.78 259.67 40.575 C 259.669 40.494 259.668 40.414 259.668 40.333 C 259.661 39.006 259.806 37.683 260.101 36.39 C 260.319 35.446 260.632 34.526 261.035 33.644 C 261.946 31.658 263.216 29.965 264.844 28.566 C 266.471 27.166 268.31 26.059 270.361 25.245 C 272.408 24.432 274.563 23.923 276.758 23.732 Z M 174.609 37.013 L 174.609 27.052 C 175.469 26.575 176.368 26.171 177.295 25.843 C 178.15 25.537 179.066 25.271 180.045 25.046 C 180.186 25.014 180.327 24.982 180.469 24.952 C 181.254 24.788 182.046 24.659 182.843 24.566 C 184.76 24.335 187.061 24.22 189.746 24.22 L 189.746 36.525 C 188.92 36.293 188.079 36.113 187.23 35.987 C 186.375 35.856 185.458 35.762 184.479 35.703 C 184.021 35.676 183.563 35.657 183.105 35.646 C 181.673 35.646 180.225 35.76 178.76 35.987 C 177.606 36.164 176.466 36.425 175.35 36.768 C 175.102 36.845 174.855 36.927 174.609 37.013 Z M 259.863 75.294 L 264.844 67.384 C 265.531 67.862 266.244 68.302 266.98 68.702 C 267.753 69.125 268.587 69.532 269.482 69.923 C 271.273 70.704 273.535 71.095 276.27 71.095 L 276.758 71.095 L 276.758 80.177 C 275.977 80.177 275.195 80.165 274.414 80.14 C 273.697 80.117 272.981 80.08 272.266 80.03 C 270.899 79.933 269.548 79.705 268.213 79.347 C 267.179 79.067 266.167 78.715 265.182 78.294 C 264.838 78.148 264.497 77.994 264.16 77.833 C 263.397 77.467 262.651 77.066 261.926 76.63 C 261.223 76.209 260.535 75.763 259.863 75.294 Z M 296.094 28.126 L 292.285 36.232 C 290.527 35.32 288.655 34.636 286.67 34.181 C 284.684 33.725 282.715 33.432 280.762 33.302 L 280.762 23.634 C 283.691 23.764 286.393 24.171 288.867 24.855 C 291.011 25.456 293.069 26.329 294.99 27.454 C 295.363 27.67 295.731 27.894 296.094 28.126 Z M 101.828 9.959 C 102.244 9.04 102.454 8.041 102.441 7.032 C 102.441 7.002 102.441 6.971 102.441 6.941 C 102.451 5.1 101.71 3.335 100.391 2.052 C 100.369 2.031 100.348 2.009 100.326 1.988 C 99.025 0.685 97.251 -0.032 95.41 0.001 C 94.61 -0.005 93.815 0.131 93.062 0.401 C 92.106 0.758 91.24 1.321 90.527 2.052 C 90.506 2.073 90.485 2.095 90.464 2.116 C 89.161 3.417 88.444 5.191 88.477 7.032 C 88.477 8.92 89.144 10.548 90.479 11.915 C 91.053 12.513 91.733 13 92.483 13.353 C 93.402 13.769 94.401 13.979 95.41 13.966 C 97.363 13.966 99.024 13.299 100.391 11.964 C 100.989 11.389 101.476 10.71 101.828 9.959 Z" vector-effect="non-scaling-stroke"/>
  </g>
</svg>