<svg width="24" height="24" xmlns="http://www.w3.org/2000/svg">

 <title>scatter-matrix</title>
 <g>
  <title>Layer 1</title>
  <g stroke="null" id="svg_7">
   <circle stroke="null" id="svg_1" r="1.76081" cy="7.38886" cx="7.4219"/>
   <circle stroke="null" id="svg_3" r="1.76081" cy="16.61114" cx="16.5781"/>
   <path stroke="null" id="svg_4" d="m20.45187,2.06831l-16.90374,0a1.41027,1.42044 0 0 0 -1.40865,1.41881l0,17.02575a1.41027,1.42044 0 0 0 1.40865,1.41881l16.90374,0a1.41027,1.42044 0 0 0 1.40865,-1.41881l0,-17.02575a1.41027,1.42044 0 0 0 -1.40865,-1.41881zm0,9.22228l-7.74755,0l0,-7.80347l7.74755,0l0,7.80347zm-9.15619,-7.80347l0,7.80347l-7.74755,0l0,-7.80347l7.74755,0zm-7.74755,9.22228l7.74755,0l0,7.80347l-7.74755,0l0,-7.80347zm9.15619,7.80347l0,-7.80347l7.74755,0l0,7.80347l-7.74755,0z"/>
  </g>
 </g>
</svg>